# xmcd
# 
# Track frame offsets:
#     225
#     12096
#     27243
#     38211
#     46716
#     59261
#     72234
#     84151
#     95363
#     105263
#     116490
#     128454
#     144534
#     155558
# 
# Disc length: 2257
# 
# Revision: 0
# Processed by: cddbd v1.5.2PL0 Copyright (c) Steve Scherf et al.
# Submitted via: fre:ac v1.0.17
# 
DISCID=a308ce0e
DTITLE=Maisie McDaniels - The Very Best of Maisie McDaniels
DYEAR=0
DGENRE=Country
TTITLE0=Setting the Woods on Fire
TTITLE1=Blue Kentucky Girl
TTITLE2=I'll Be All Smiles Tonight
TTITLE3=Blackboard of My Heart
TTITLE4=Crazy
TTITLE5=Clogher Head
TTITLE6=I Wanna Be Where You're Gonna Be Tonight
TTITLE7=Roomfull of Roses
TTITLE8=At the Top of Tully Hill
TTITLE9=Pick Me Up on Your Way Down
TTITLE10=I Fall to Pieces
TTITLE11=Connemara Cradle Song
TTITLE12=Sally's Bangs
TTITLE13=This Song is Just for You
EXTD=
EXTT0=
EXTT1=
EXTT2=
EXTT3=
EXTT4=
EXTT5=
EXTT6=
EXTT7=
EXTT8=
EXTT9=
EXTT10=
EXTT11=
EXTT12=
EXTT13=
PLAYORDER=
